<svg xmlns="http://www.w3.org/2000/svg" xmlns:xlink="http://www.w3.org/1999/xlink" id="Calque_2" data-name="Calque 2" viewBox="0 0 603.17 149.33"><defs><style>      .cls-1 {        fill: #010101;      }      .cls-2 {        fill: #01ff48;      }      .cls-3 {        fill: #ffa300;      }      .cls-4 {        fill: #fff;      }      .cls-5 {        fill: red;      }      .cls-6 {        fill: #ff00f9;      }      .cls-7 {        fill: #a548ff;      }      .cls-8 {        fill: #ceff00;      }      .cls-9 {        fill: #4abeff;      }      .cls-10 {        fill: url(#Dégradé_sans_nom_58);      }      .cls-11 {        fill: url(#Dégradé_sans_nom_25);      }      .cls-12 {        fill: url(#Dégradé_sans_nom_22);        opacity: .1;      }      .cls-13 {        opacity: .15;      }    </style><radialGradient id="D&#xE9;grad&#xE9;_sans_nom_22" data-name="D&#xE9;grad&#xE9; sans nom 22" cx="53.72" cy="71.64" fx="53.72" fy="71.64" r="53.72" gradientUnits="userSpaceOnUse"><stop offset="0" stop-color="#66bae9"></stop><stop offset="1" stop-color="#fff" stop-opacity=".1"></stop></radialGradient><linearGradient id="D&#xE9;grad&#xE9;_sans_nom_58" data-name="D&#xE9;grad&#xE9; sans nom 58" x1="62.33" y1="144.68" x2="74.91" y2="122.9" gradientUnits="userSpaceOnUse"><stop offset="0" stop-color="#fff" stop-opacity=".3"></stop><stop offset=".42" stop-color="#a548ff" stop-opacity=".5"></stop><stop offset=".53" stop-color="#b43bfd" stop-opacity=".59"></stop><stop offset=".79" stop-color="#db1cfb" stop-opacity=".8"></stop><stop offset="1" stop-color="#ff00f9"></stop></linearGradient><linearGradient id="D&#xE9;grad&#xE9;_sans_nom_25" data-name="D&#xE9;grad&#xE9; sans nom 25" x1="48.1" y1="148.58" x2="69.51" y2="111.49" gradientUnits="userSpaceOnUse"><stop offset="0" stop-color="#fff" stop-opacity="0"></stop><stop offset="1" stop-color="#010101"></stop></linearGradient></defs><g id="Calque_1-2" data-name="Calque 1"><g id="LogoText"><path class="cls-4" d="M167.32,26.29c11.64,0,17.5,4.05,17.5,12.8,0,6.73-4.19,10.85-10.2,12.08,7.01,1.16,11.86,5.06,11.86,12.37,0,8.75-6.36,13.38-19.45,13.38h-9.91c-.87,0-1.23-.36-1.23-1.23V27.52c0-.87,.36-1.23,1.23-1.23h10.2Zm-9.83,23.65c0,.36,.22,.58,.58,.58h9.76c10.34,0,15.4-4.41,15.4-11.35,0-7.59-5.21-11.28-16.12-11.28h-9.04c-.36,0-.58,.07-.58,.58v21.48Zm10.34,2.17h-9.76c-.36,0-.58,.07-.58,.58v22.06c0,.36,.22,.58,.58,.58h8.97c11.93,0,17.86-3.91,17.86-11.71s-5.71-11.5-17.07-11.5Zm63.56,23.21c.51,0,.58,.07,.58,.58v.43c0,.36-.07,.58-.58,.58h-26.39c-.87,0-1.23-.36-1.23-1.23V26.87c0-.51,.22-.58,.58-.58h.43c.51,0,.58,.07,.58,.58v47.87c0,.36,.22,.58,.58,.58h25.45Zm42.87-49.31l-19.52,50.9h-1.45l-19.45-50.9h1.66l18.51,48.73,18.65-48.73h1.59Zm52.93,43.38l.22,.29c.07,.07,.15,.22,.15,.43s-.15,.36-.36,.58c-5.57,4.56-11.79,6.87-18.66,6.87-13.3,.22-25.16-11.06-24.88-25.89-.22-14.82,11.28-26.25,25.02-26.03,7.23,0,13.45,2.68,18.37,6.8,.51,.51,.58,.72,.29,1.08l-.22,.29c-.22,.22-.36,.29-.43,.29-.29,0-.58-.29-.65-.36-4.7-4.12-10.77-6.51-17.43-6.51-12.8-.22-23.57,10.63-23.36,24.44-.22,13.38,10.41,24.59,23.36,24.3,6.73,0,12.8-2.53,17.43-6.51,.58-.51,.79-.58,1.16-.07Zm18.22-17.93l25.81,25.45h-1.95l-24.73-24.29v24.29h-1.45V26h1.45v24.44l24.73-24.44h1.95l-25.81,25.45Zm97.39-.94c-2.75,2.31-6.8,3.47-12.15,3.47h-11.42v22.92h-1.45V26h12.87c5.59,0,9.7,1.23,12.33,3.69,2.63,2.46,3.94,5.91,3.94,10.34,0,4.68-1.37,8.17-4.12,10.48Zm-.83-1.3c2.34-2.17,3.51-5.23,3.51-9.18,0-4.15-1.16-7.28-3.47-9.4-2.31-2.12-6.1-3.18-11.35-3.18h-11.42v25.02h11.42c5.21,0,8.98-1.08,11.32-3.25Zm53.83,2.24l15.11,25.45h-1.66l-14.46-24.44-14.03,24.44h-1.66l14.9-25.81-14.9-25.09h1.66l14.24,24.08,14.24-24.08h1.66l-15.11,25.45Zm34.13-24.15v23.5h21.26v1.3h-21.26v23.5h23.43v1.3h-24.87V26h24.87v1.3h-23.43Zm72.53,48.01c.51,0,.58,.07,.58,.58v.43c0,.36-.07,.58-.58,.58h-26.39c-.87,0-1.23-.36-1.23-1.23V26.87c0-.51,.22-.58,.58-.58h.43c.51,0,.58,.07,.58,.58v47.87c0,.36,.22,.58,.58,.58h25.45ZM460.48,27.34c-.36-.36-.54-.83-.54-1.41s.18-1.05,.54-1.41,.81-.54,1.34-.54,.98,.18,1.34,.54c.36,.36,.54,.83,.54,1.41s-.18,1.05-.54,1.41-.81,.54-1.34,.54-.98-.18-1.34-.54Zm2.06,10.52v39.04h-1.45V37.86h1.45ZM155.85,107.84h.82l3.13,6.06,3.11-6.06h.82l-3.56,6.74v4.58h-.73v-4.58l-3.6-6.74Zm24.86,11.45c-3.16,0-5.5-2.39-5.5-5.77s2.34-5.77,5.5-5.77,5.5,2.37,5.5,5.77-2.34,5.77-5.5,5.77Zm0-.64c2.66,0,4.74-1.95,4.74-5.13s-2.08-5.15-4.74-5.15-4.76,1.95-4.76,5.15,2.1,5.13,4.76,5.13Zm140.62,.64c-3.16,0-5.5-2.39-5.5-5.77s2.34-5.77,5.5-5.77,5.5,2.37,5.5,5.77-2.34,5.77-5.5,5.77Zm0-.64c2.66,0,4.74-1.95,4.74-5.13s-2.08-5.15-4.74-5.15-4.76,1.95-4.76,5.15,2.1,5.13,4.76,5.13Zm94.94,.64c-3.16,0-5.5-2.39-5.5-5.77s2.34-5.77,5.5-5.77,5.5,2.37,5.5,5.77-2.34,5.77-5.5,5.77Zm0-.64c2.66,0,4.74-1.95,4.74-5.13s-2.08-5.15-4.74-5.15-4.76,1.95-4.76,5.15,2.1,5.13,4.76,5.13Zm26.62-10.79v11.31h-.73l-6.64-10.13v10.13h-.73v-11.31h.73l6.64,10.1v-10.1h.73Zm38.19,6.34h-2.42v4.97h-.73v-11.32h3.15c2.6,0,3.71,1.32,3.71,3.19,0,1.97-1.21,3.16-3.71,3.16Zm0-.64c2.16,0,2.98-.98,2.98-2.52s-.82-2.55-2.98-2.55h-2.42v5.06h2.42Zm21.33,2.71h-5.37l-1.08,2.9h-.79l4.16-11.06h.81l4.14,11.06h-.79l-1.08-2.9Zm-2.68-7.21l-2.47,6.6h4.92l-2.45-6.6Zm19.89-1.21c2.61,0,3.77,1.37,3.77,3.24,0,1.69-.95,2.92-2.87,3.19l2.97,4.89h-.87l-2.9-4.82h-2.48v4.82h-.73v-11.32h3.11Zm0,.65h-2.39v5.24h2.42c2.08,0,2.98-1.13,2.98-2.64,0-1.6-.84-2.6-3.02-2.6Zm15.38-.65h7.18v.61h-3.23v10.71h-.73v-10.71h-3.23v-.61Zm28.01,.02v11.31h-.73l-6.65-10.13v10.13h-.73v-11.31h.73l6.65,10.1v-10.1h.73Zm19.75,.6h-5v4.73h4.52v.61h-4.52v4.76h5v.61h-5.73v-11.32h5.73v.61Zm16.54-.61c2.61,0,3.77,1.37,3.77,3.24,0,1.69-.95,2.92-2.87,3.19l2.97,4.89h-.87l-2.9-4.82h-2.48v4.82h-.73v-11.32h3.11Zm0,.65h-2.39v5.24h2.42c2.08,0,2.98-1.13,2.98-2.64,0-1.6-.84-2.6-3.02-2.6Zm-400.39-.65h.73v7.08c0,2.69,1.37,3.71,3.24,3.71s3.19-1.02,3.19-3.71v-7.08h.73v7.06c0,3.06-1.66,4.37-3.92,4.37s-3.97-1.31-3.97-4.37v-7.06Zm24.54,0c2.61,0,3.77,1.37,3.77,3.24,0,1.69-.95,2.92-2.87,3.19l2.97,4.89h-.87l-2.9-4.82h-2.48v4.82h-.73v-11.32h3.11Zm0,.65h-2.39v5.24h2.42c2.08,0,2.98-1.13,2.98-2.64,0-1.6-.84-2.6-3.02-2.6Zm34.53-.65h.73v11.32h-.73v-11.32Zm22.62,.02v11.31h-.73l-6.65-10.13v10.13h-.73v-11.31h.73l6.65,10.1v-10.1h.73Zm21.89,.48v11.31h-.73l-6.65-10.13v10.13h-.73v-11.31h.73l6.65,10.1v-10.1h.73Zm43.75-.02h.77l-4.32,11.32h-.81l-4.31-11.32h.79l3.92,10.47,3.95-10.47Zm18.39,8.42h-5.37l-1.08,2.9h-.79l4.16-11.06h.81l4.15,11.06h-.79l-1.08-2.9Zm-2.68-7.21l-2.47,6.6h4.92l-2.45-6.6Zm14.93-1.21h7.18v.61h-3.23v10.71h-.73v-10.71h-3.23v-.61Zm20.25,0h.73v11.32h-.73v-11.32Z"></path><g id="LightLogo"><circle class="cls-12" cx="53.72" cy="71.64" r="53.72"></circle><g><g id="Mirror" class="cls-13"><path class="cls-10" d="M87.48,128.33l-30.68-17.69c-.76-.44-1.55-.66-2.36-.66-2.38,0-4.19,1.9-4.19,4.43v3.96s-.01,0-.01,0v19.08s0,0,0,0l5.51,1.42,14.06,3.62h0s21,5.41,21,5.41v-13.85c0-2.2-1.4-4.61-3.32-5.72Z"></path><path class="cls-11" d="M50.28,134.34v-3.2s0,0,0,0v-6.46s0-9.88,0-9.88c0-2.5,1.78-4.37,4.13-4.37h0c.8,0,1.59,.21,2.34,.64l30.37,17.51c1.9,1.1,3.28,3.47,3.28,5.65v13.58l5.95,1.53v-18.57c0-2.18-1.37-4.56-3.26-5.65l-36.34-20.97c-1.18-.68-2.43-.82-3.26-.82h0c-.84,0-2.08,.14-3.26,.82L13.9,125.11c-.94,.54-1.74,1.4-2.32,2.39l38.7,9.96v-3.12Z"></path></g><g id="Logo"><path class="cls-6" d="M84.24,26.96l-30.68,17.7-.06,.04L21.1,25.99c-1.55-.89-3.52-.36-4.42,1.18-.89,1.55-.39,3.52,1.16,4.42l32.38,18.7v.07l.03,35.4c0,2.53,1.82,4.43,4.19,4.43,.81,0,1.6-.22,2.36-.66l30.68-17.69c1.92-1.11,3.32-3.52,3.32-5.72V30.73c0-2.53-1.8-4.43-4.18-4.43-.8,0-1.62,.23-2.37,.66"></path><path class="cls-7" d="M74.26,21.2l-30.68,17.7-.06,.04L15.89,22.99l-3.22,1.86-.02,3.75,27.57,15.93v.07l.03,35.4c0,2.53,1.82,4.43,4.2,4.43,.81,0,1.6-.22,2.36-.66l30.68-17.69c1.92-1.11,3.31-3.52,3.31-5.72V24.97c0-2.53-1.8-4.43-4.18-4.43-.8,0-1.62,.23-2.37,.66"></path><path class="cls-9" d="M64.12,15.34l-30.68,17.7-.06,.04-16.38-9.45-3.22,1.86v3.76s16.33,9.44,16.33,9.44v.07l.02,35.38c0,2.53,1.81,4.41,4.18,4.41,.81,0,1.6-.21,2.36-.64l30.69-17.68c1.92-1.11,3.33-3.51,3.33-5.71V19.11c0-2.52-1.81-4.43-4.2-4.43-.8,0-1.63,.23-2.38,.66"></path><path class="cls-2" d="M53.59,9.26L22.91,26.96l-.06,.04-4.73-2.73-3.22,1.86v3.76s4.73,2.71,4.73,2.71v35.45c0,2.53,1.79,4.42,4.16,4.42,.81,0,1.6-.21,2.36-.64l30.68-17.68c1.92-1.11,3.31-3.51,3.31-5.71V13.03c0-2.53-1.8-4.43-4.18-4.43-.8,0-1.62,.23-2.37,.66"></path><path class="cls-8" d="M14.89,26.13v39.38c.05-.03,.11-.06,.16-.09l30.68-17.68c1.92-1.11,3.32-3.51,3.32-5.71V6.63c0-.07,0-.15-.01-.22L14.89,26.13Z"></path><path class="cls-3" d="M16,26.77v26.6s19.76-11.39,19.76-11.39c1.92-1.11,3.32-3.51,3.32-5.71V13.45l-23.07,13.31Z"></path><path class="cls-5" d="M15.99,26.77v13.87s9.77-4.42,9.77-4.42c1.92-1.11,3.3-3.51,3.3-5.71l-1.05-10.69-12.02,6.95Z"></path><path class="cls-1" d="M93.1,21.8L56.76,.82c-1.18-.68-2.43-.82-3.26-.82s-2.08,.14-3.26,.82L13.9,21.8c-1.89,1.09-3.26,3.47-3.26,5.65v41.95c0,2.18,1.37,4.56,3.27,5.65l36.34,20.97c1.18,.68,2.43,.82,3.26,.82h0c.84,0,2.08-.14,3.26-.82l36.34-20.97c1.89-1.09,3.26-3.47,3.26-5.65V27.45c0-2.18-1.37-4.56-3.26-5.65m-2.69,44.15c0,2.18-1.38,4.56-3.28,5.65l-30.37,17.51c-.75,.43-1.54,.64-2.34,.64h0c-2.35,0-4.13-1.87-4.13-4.37v-9.88s0-6.46,0-6.46c0,0,0,0,0,0v-15.55c0-1.76-1.25-3.92-2.77-4.8l-10.89-6.3c-.93-.54-2.23-1.3-3.45-2l-.3-.17c-.09-.05-.19-.11-.28-.16l-4.35-2.5-10.03-5.79c-1.53-.88-2.05-2.84-1.16-4.37,.88-1.53,2.84-2.05,4.37-1.17l10,5.76,2.8,1.62,.03,.02c1.52,.88,4.03,2.31,5.55,3.18l10.98,6.31c1.53,.88,4.02,.87,5.55,0l10.81-6.23c1.52-.88,4.02-2.32,5.54-3.2l.06-.03h0s2.77-1.6,2.77-1.6l8.42-4.86c.74-.43,1.55-.65,2.34-.65,2.36,0,4.14,1.89,4.14,4.39v35.04Z"></path></g></g></g></g></g></svg>